<svg width="351" height="97" viewBox="0 0 351 97" fill="none" xmlns="http://www.w3.org/2000/svg">
<rect x="1.25216" y="1.25216" width="348.496" height="94.2284" rx="13.4612" fill="black" fill-opacity="0.8"/>
<rect x="19.9689" y="9.47845" width="67.306" height="77.7759" rx="7.47845" fill="black"/>
<path d="M62.7536 49.1304C65.7211 49.9919 67.9945 51.4996 69.574 53.6533C71.2013 55.8071 72.015 58.4396 72.015 61.5506C72.015 64.518 71.2013 67.1026 69.574 69.3042C67.9945 71.458 65.6972 73.1332 62.6818 74.3298C59.6665 75.4785 56.1487 76.0528 52.1283 76.0528C48.5386 76.0528 45.0447 75.5742 41.6465 74.6169C38.2961 73.6118 35.6158 72.2717 33.6056 70.5965L37.8414 61.048C42.2926 64.1112 46.8395 65.6428 51.4821 65.6428C54.3538 65.6428 56.388 65.236 57.5845 64.4223C58.7811 63.5608 59.3794 62.1249 59.3794 60.1147C59.3794 58.2002 58.7811 56.8362 57.5845 56.0225C56.4358 55.2089 54.4974 54.802 51.7693 54.802H43.8003V44.4638H50.4052C53.0855 44.4638 55 44.1049 56.1487 43.3869C57.3452 42.6211 57.9435 41.4007 57.9435 39.7255C57.9435 37.9067 57.3692 36.5187 56.2205 35.5615C55.1196 34.6042 53.5641 34.1256 51.5539 34.1256C49.4958 34.1256 47.3181 34.5325 45.0207 35.3461C42.7712 36.1119 40.6174 37.2367 38.5594 38.7204L34.3236 29.1719C36.3816 27.5446 39.0619 26.2284 42.3644 25.2233C45.7147 24.2182 49.089 23.7156 52.4872 23.7156C56.1247 23.7156 59.3076 24.29 62.0357 25.4387C64.7638 26.5873 66.8698 28.2386 68.3535 30.3924C69.8851 32.4983 70.6509 34.9632 70.6509 37.7871C70.6987 40.4673 70.0287 42.7887 68.6407 44.751C67.2527 46.7133 65.2903 48.1731 62.7536 49.1304Z" fill="#FF005C"/>
<path d="M98.6312 49.7821V55.9052H96.5687V40.2646H102.337C104.049 40.2646 105.388 40.7014 106.355 41.5751C107.329 42.4488 107.816 43.6054 107.816 45.0448C107.816 46.5631 107.34 47.734 106.387 48.5575C105.442 49.3739 104.085 49.7821 102.316 49.7821H98.6312ZM98.6312 48.0956H102.337C103.44 48.0956 104.285 47.8378 104.872 47.3222C105.46 46.7994 105.753 46.0474 105.753 45.0663C105.753 44.1353 105.46 43.3905 104.872 42.8319C104.285 42.2733 103.48 41.9833 102.455 41.9618H98.6312V48.0956ZM112.295 55.9052H110.308V39.4052H112.295V55.9052ZM122.661 55.9052C122.547 55.676 122.454 55.2678 122.382 54.6806C121.458 55.6402 120.356 56.12 119.074 56.12C117.928 56.12 116.986 55.7978 116.248 55.1532C115.518 54.5015 115.153 53.678 115.153 52.6825C115.153 51.4722 115.611 50.5341 116.528 49.8681C117.452 49.1949 118.748 48.8583 120.416 48.8583H122.35V47.9452C122.35 47.2506 122.142 46.6991 121.727 46.2909C121.312 45.8756 120.699 45.6679 119.89 45.6679C119.181 45.6679 118.587 45.8469 118.107 46.205C117.627 46.5631 117.387 46.9963 117.387 47.5048H115.389C115.389 46.9247 115.593 46.3661 116.001 45.829C116.417 45.2847 116.975 44.8551 117.677 44.5399C118.386 44.2248 119.163 44.0673 120.008 44.0673C121.347 44.0673 122.397 44.4039 123.156 45.0771C123.915 45.7431 124.309 46.6633 124.337 47.8378V53.1874C124.337 54.2545 124.473 55.1031 124.745 55.7333V55.9052H122.661ZM119.364 54.3905C119.987 54.3905 120.578 54.2294 121.136 53.9071C121.695 53.5849 122.099 53.1659 122.35 52.6503V50.2655H120.792C118.357 50.2655 117.14 50.9781 117.14 52.4032C117.14 53.0263 117.348 53.5133 117.763 53.8642C118.178 54.2151 118.712 54.3905 119.364 54.3905ZM131.083 52.994L133.79 44.2821H135.917L131.245 57.6991C130.521 59.6327 129.372 60.5995 127.796 60.5995L127.42 60.5673L126.679 60.4276V58.8163L127.216 58.8593C127.889 58.8593 128.412 58.7232 128.785 58.4511C129.164 58.1789 129.476 57.6812 129.719 56.9579L130.16 55.7763L126.013 44.2821H128.183L131.083 52.994ZM150.333 55.9052C150.219 55.676 150.126 55.2678 150.054 54.6806C149.13 55.6402 148.027 56.12 146.745 56.12C145.6 56.12 144.658 55.7978 143.92 55.1532C143.19 54.5015 142.825 53.678 142.825 52.6825C142.825 51.4722 143.283 50.5341 144.2 49.8681C145.123 49.1949 146.42 48.8583 148.088 48.8583H150.022V47.9452C150.022 47.2506 149.814 46.6991 149.399 46.2909C148.983 45.8756 148.371 45.6679 147.562 45.6679C146.853 45.6679 146.259 45.8469 145.779 46.205C145.299 46.5631 145.059 46.9963 145.059 47.5048H143.061C143.061 46.9247 143.265 46.3661 143.673 45.829C144.089 45.2847 144.647 44.8551 145.349 44.5399C146.058 44.2248 146.835 44.0673 147.68 44.0673C149.019 44.0673 150.068 44.4039 150.828 45.0771C151.587 45.7431 151.981 46.6633 152.009 47.8378V53.1874C152.009 54.2545 152.145 55.1031 152.417 55.7333V55.9052H150.333ZM147.036 54.3905C147.659 54.3905 148.249 54.2294 148.808 53.9071C149.367 53.5849 149.771 53.1659 150.022 52.6503V50.2655H148.464C146.029 50.2655 144.812 50.9781 144.812 52.4032C144.812 53.0263 145.02 53.5133 145.435 53.8642C145.85 54.2151 146.384 54.3905 147.036 54.3905ZM157.004 44.2821L157.069 45.7431C157.957 44.6259 159.117 44.0673 160.549 44.0673C163.006 44.0673 164.245 45.453 164.266 48.2245V55.9052H162.279V48.2138C162.272 47.3759 162.078 46.7564 161.699 46.3554C161.326 45.9543 160.743 45.7538 159.948 45.7538C159.303 45.7538 158.737 45.9257 158.25 46.2694C157.763 46.6132 157.384 47.0644 157.112 47.623V55.9052H155.124V44.2821H157.004ZM166.78 49.997C166.78 48.2138 167.202 46.7815 168.047 45.7001C168.892 44.6116 169.999 44.0673 171.367 44.0673C172.727 44.0673 173.805 44.5328 174.6 45.4638V39.4052H176.587V55.9052H174.761L174.664 54.6591C173.87 55.633 172.763 56.12 171.345 56.12C169.999 56.12 168.899 55.5686 168.047 54.4657C167.202 53.3629 166.78 51.9234 166.78 50.1474V49.997ZM168.767 50.2226C168.767 51.5403 169.039 52.5715 169.583 53.3163C170.128 54.0611 170.88 54.4335 171.839 54.4335C173.1 54.4335 174.02 53.8677 174.6 52.7362V47.3974C174.006 46.3017 173.092 45.7538 171.861 45.7538C170.887 45.7538 170.128 46.1298 169.583 46.8817C169.039 47.6337 168.767 48.7473 168.767 50.2226ZM194.29 48.6757H187.512V54.2187H195.386V55.9052H185.45V40.2646H195.279V41.9618H187.512V46.9892H194.29V48.6757ZM199.522 44.2821L199.586 45.7431C200.474 44.6259 201.634 44.0673 203.067 44.0673C205.523 44.0673 206.762 45.453 206.784 48.2245V55.9052H204.796V48.2138C204.789 47.3759 204.596 46.7564 204.216 46.3554C203.844 45.9543 203.26 45.7538 202.465 45.7538C201.821 45.7538 201.255 45.9257 200.768 46.2694C200.281 46.6132 199.901 47.0644 199.629 47.623V55.9052H197.642V44.2821H199.522ZM211.832 44.2821V57.248C211.832 59.4823 210.819 60.5995 208.792 60.5995C208.356 60.5995 207.951 60.5351 207.578 60.4062V58.8163C207.808 58.8736 208.108 58.9023 208.481 58.9023C208.925 58.9023 209.261 58.7805 209.491 58.537C209.727 58.3007 209.845 57.8853 209.845 57.2909V44.2821H211.832ZM209.641 41.1991C209.641 40.884 209.738 40.6155 209.931 40.3935C210.132 40.1643 210.422 40.0497 210.801 40.0497C211.188 40.0497 211.481 40.1607 211.682 40.3827C211.883 40.6047 211.983 40.8769 211.983 41.1991C211.983 41.5214 211.883 41.7899 211.682 42.0048C211.481 42.2196 211.188 42.3271 210.801 42.3271C210.414 42.3271 210.124 42.2196 209.931 42.0048C209.738 41.7899 209.641 41.5214 209.641 41.1991ZM214.518 49.9862C214.518 48.8476 214.74 47.8235 215.184 46.914C215.635 46.0045 216.258 45.3026 217.053 44.8085C217.855 44.3144 218.768 44.0673 219.792 44.0673C221.375 44.0673 222.653 44.6151 223.627 45.7108C224.608 46.8065 225.099 48.2639 225.099 50.0829V50.2226C225.099 51.3541 224.881 52.371 224.444 53.2733C224.014 54.1685 223.395 54.8668 222.585 55.3681C221.783 55.8694 220.859 56.12 219.814 56.12C218.238 56.12 216.96 55.5722 215.979 54.4765C215.005 53.3808 214.518 51.9306 214.518 50.1259V49.9862ZM216.516 50.2226C216.516 51.5116 216.813 52.5465 217.408 53.3271C218.009 54.1077 218.811 54.498 219.814 54.498C220.824 54.498 221.626 54.1041 222.22 53.3163C222.814 52.5214 223.112 51.4114 223.112 49.9862C223.112 48.7115 222.807 47.6802 222.199 46.8925C221.597 46.0976 220.795 45.7001 219.792 45.7001C218.811 45.7001 218.02 46.0904 217.418 46.871C216.817 47.6516 216.516 48.7688 216.516 50.2226ZM231.222 52.994L233.929 44.2821H236.056L231.383 57.6991C230.66 59.6327 229.51 60.5995 227.935 60.5995L227.559 60.5673L226.818 60.4276V58.8163L227.355 58.8593C228.028 58.8593 228.551 58.7232 228.923 58.4511C229.303 58.1789 229.614 57.6812 229.858 56.9579L230.298 55.7763L226.152 44.2821H228.322L231.222 52.994Z" fill="white"/>
<path d="M320.517 48.3603C320.521 48.2992 320.521 48.238 320.517 48.177C320.485 47.7383 320.321 47.3202 320.048 46.9792L298.8 20.8235C298.625 20.6074 298.41 20.4286 298.167 20.2973C297.923 20.166 297.657 20.0847 297.383 20.0583C297.109 20.0318 296.833 20.0605 296.569 20.1429C296.306 20.2253 296.062 20.3596 295.85 20.5383L292.987 22.9624C292.775 23.1407 292.599 23.3598 292.47 23.6073C292.341 23.8548 292.261 24.1257 292.235 24.4046C292.209 24.6835 292.237 24.9648 292.318 25.2326C292.399 25.5004 292.531 25.7492 292.707 25.965L310.904 48.3725L292.707 70.78C292.353 71.2162 292.184 71.7773 292.236 72.3403C292.289 72.9032 292.559 73.4219 292.987 73.7826L295.854 76.1945C296.066 76.3731 296.31 76.5075 296.573 76.5899C296.837 76.6723 297.113 76.701 297.387 76.6745C297.661 76.648 297.927 76.5668 298.171 76.4355C298.414 76.3042 298.629 76.1254 298.804 75.9093L320.048 49.7495C320.322 49.4105 320.486 48.9934 320.517 48.5558C320.521 48.4907 320.521 48.4254 320.517 48.3603Z" fill="#ED1B5E"/>
<rect x="1.25216" y="1.25216" width="348.496" height="94.2284" rx="13.4612" stroke="#FF005C" stroke-width="1.49569"/>
</svg>
